<svg width="162" height="42" viewBox="0 0 162 42" fill="none" xmlns="http://www.w3.org/2000/svg">
<path d="M1.66463 23.328C1.66463 21.76 1.98196 20.388 2.61663 19.212C3.25129 18.0173 4.11929 17.1027 5.22063 16.468C6.34063 15.8147 7.60063 15.488 9.00063 15.488C10.3446 15.488 11.558 15.8147 12.6406 16.468C13.7233 17.1213 14.5166 17.9707 15.0206 19.016V10.28H16.9806V31H15.0206V27.584C14.554 28.648 13.7886 29.5253 12.7246 30.216C11.6606 30.888 10.41 31.224 8.97263 31.224C7.57263 31.224 6.31263 30.8973 5.19263 30.244C4.09129 29.5907 3.22329 28.6667 2.58863 27.472C1.97263 26.2773 1.66463 24.896 1.66463 23.328ZM15.0206 23.356C15.0206 22.124 14.7686 21.0413 14.2646 20.108C13.7606 19.1747 13.07 18.456 12.1926 17.952C11.334 17.448 10.382 17.196 9.33663 17.196C8.25396 17.196 7.28329 17.4387 6.42463 17.924C5.56596 18.4093 4.88463 19.1187 4.38063 20.052C3.89529 20.9667 3.65263 22.0587 3.65263 23.328C3.65263 24.5787 3.89529 25.68 4.38063 26.632C4.88463 27.5653 5.56596 28.284 6.42463 28.788C7.28329 29.2733 8.25396 29.516 9.33663 29.516C10.382 29.516 11.334 29.264 12.1926 28.76C13.07 28.256 13.7606 27.5373 14.2646 26.604C14.7686 25.6707 15.0206 24.588 15.0206 23.356ZM37.2472 22.572C37.2472 23.244 37.2285 23.7573 37.1912 24.112H24.5072C24.5632 25.2693 24.8432 26.2587 25.3472 27.08C25.8512 27.9013 26.5138 28.5267 27.3352 28.956C28.1565 29.3667 29.0525 29.572 30.0232 29.572C31.2925 29.572 32.3565 29.264 33.2152 28.648C34.0925 28.032 34.6712 27.2013 34.9512 26.156H37.0232C36.6498 27.6493 35.8472 28.872 34.6152 29.824C33.4018 30.7573 31.8712 31.224 30.0232 31.224C28.5858 31.224 27.2978 30.9067 26.1592 30.272C25.0205 29.6187 24.1245 28.704 23.4712 27.528C22.8365 26.3333 22.5192 24.9427 22.5192 23.356C22.5192 21.7693 22.8365 20.3787 23.4712 19.184C24.1058 17.9893 24.9925 17.0747 26.1312 16.44C27.2698 15.8053 28.5672 15.488 30.0232 15.488C31.4792 15.488 32.7485 15.8053 33.8312 16.44C34.9325 17.0747 35.7725 17.9333 36.3512 19.016C36.9485 20.08 37.2472 21.2653 37.2472 22.572ZM35.2592 22.516C35.2778 21.3773 35.0445 20.4067 34.5592 19.604C34.0925 18.8013 33.4485 18.1947 32.6272 17.784C31.8058 17.3733 30.9098 17.168 29.9392 17.168C28.4832 17.168 27.2418 17.6347 26.2152 18.568C25.1885 19.5013 24.6192 20.8173 24.5072 22.516H35.2592ZM48.2251 29.096L53.3771 15.712H55.4491L49.3171 31H47.1051L40.9731 15.712H43.0731L48.2251 29.096ZM65.3296 31.224C63.575 31.224 62.1376 30.8227 61.0176 30.02C59.9163 29.1987 59.3003 28.088 59.1696 26.688H61.1856C61.279 27.5467 61.6803 28.2467 62.3896 28.788C63.1176 29.3107 64.0883 29.572 65.3016 29.572C66.3656 29.572 67.1963 29.32 67.7936 28.816C68.4096 28.312 68.7176 27.6867 68.7176 26.94C68.7176 26.4173 68.5496 25.988 68.2136 25.652C67.8776 25.316 67.4483 25.0547 66.9256 24.868C66.4216 24.6627 65.731 24.448 64.8536 24.224C63.715 23.9253 62.791 23.6267 62.0816 23.328C61.3723 23.0293 60.7656 22.5907 60.2616 22.012C59.7763 21.4147 59.5336 20.6213 59.5336 19.632C59.5336 18.8853 59.7576 18.1947 60.2056 17.56C60.6536 16.9253 61.2883 16.4213 62.1096 16.048C62.931 15.6747 63.8643 15.488 64.9096 15.488C66.5523 15.488 67.8776 15.908 68.8856 16.748C69.8936 17.5693 70.435 18.708 70.5096 20.164H68.5496C68.4936 19.268 68.139 18.5493 67.4856 18.008C66.851 17.448 65.9736 17.168 64.8536 17.168C63.8643 17.168 63.0616 17.4013 62.4456 17.868C61.8296 18.3347 61.5216 18.9133 61.5216 19.604C61.5216 20.2013 61.699 20.696 62.0536 21.088C62.427 21.4613 62.8843 21.76 63.4256 21.984C63.967 22.1893 64.695 22.4227 65.6096 22.684C66.711 22.9827 67.5883 23.272 68.2416 23.552C68.895 23.832 69.455 24.2427 69.9216 24.784C70.3883 25.3253 70.631 26.044 70.6496 26.94C70.6496 27.7613 70.4256 28.4987 69.9776 29.152C69.5296 29.7867 68.9043 30.2907 68.1016 30.664C67.299 31.0373 66.375 31.224 65.3296 31.224ZM90.1311 22.572C90.1311 23.244 90.1124 23.7573 90.0751 24.112H77.3911C77.4471 25.2693 77.7271 26.2587 78.2311 27.08C78.7351 27.9013 79.3977 28.5267 80.2191 28.956C81.0404 29.3667 81.9364 29.572 82.9071 29.572C84.1764 29.572 85.2404 29.264 86.0991 28.648C86.9764 28.032 87.5551 27.2013 87.8351 26.156H89.9071C89.5337 27.6493 88.7311 28.872 87.4991 29.824C86.2857 30.7573 84.7551 31.224 82.9071 31.224C81.4697 31.224 80.1817 30.9067 79.0431 30.272C77.9044 29.6187 77.0084 28.704 76.3551 27.528C75.7204 26.3333 75.4031 24.9427 75.4031 23.356C75.4031 21.7693 75.7204 20.3787 76.3551 19.184C76.9897 17.9893 77.8764 17.0747 79.0151 16.44C80.1537 15.8053 81.4511 15.488 82.9071 15.488C84.3631 15.488 85.6324 15.8053 86.7151 16.44C87.8164 17.0747 88.6564 17.9333 89.2351 19.016C89.8324 20.08 90.1311 21.2653 90.1311 22.572ZM88.1431 22.516C88.1617 21.3773 87.9284 20.4067 87.4431 19.604C86.9764 18.8013 86.3324 18.1947 85.5111 17.784C84.6897 17.3733 83.7937 17.168 82.8231 17.168C81.3671 17.168 80.1257 17.6347 79.0991 18.568C78.0724 19.5013 77.5031 20.8173 77.3911 22.516H88.1431ZM116.924 18.428C117.354 17.476 118.007 16.7387 118.884 16.216C119.78 15.6933 120.872 15.432 122.16 15.432V17.476H121.628C120.21 17.476 119.071 17.8587 118.212 18.624C117.354 19.3893 116.924 20.668 116.924 22.46V31H114.964V15.712H116.924V18.428ZM126.173 23.356C126.173 21.7693 126.49 20.388 127.125 19.212C127.759 18.0173 128.637 17.1027 129.757 16.468C130.877 15.8147 132.155 15.488 133.593 15.488C135.478 15.488 137.027 15.9547 138.241 16.888C139.473 17.8213 140.266 19.0907 140.621 20.696H138.521C138.259 19.5947 137.69 18.736 136.813 18.12C135.954 17.4853 134.881 17.168 133.593 17.168C132.566 17.168 131.642 17.4013 130.821 17.868C129.999 18.3347 129.346 19.0347 128.861 19.968C128.394 20.8827 128.161 22.012 128.161 23.356C128.161 24.7 128.394 25.8387 128.861 26.772C129.346 27.7053 129.999 28.4053 130.821 28.872C131.642 29.3387 132.566 29.572 133.593 29.572C134.881 29.572 135.954 29.264 136.813 28.648C137.69 28.0133 138.259 27.136 138.521 26.016H140.621C140.266 27.584 139.473 28.844 138.241 29.796C137.009 30.748 135.459 31.224 133.593 31.224C132.155 31.224 130.877 30.9067 129.757 30.272C128.637 29.6187 127.759 28.704 127.125 27.528C126.49 26.3333 126.173 24.9427 126.173 23.356ZM153.481 15.432C154.638 15.432 155.674 15.6747 156.589 16.16C157.522 16.6453 158.25 17.392 158.773 18.4C159.314 19.3893 159.585 20.6027 159.585 22.04V31H157.653V22.264C157.653 20.6027 157.233 19.3333 156.393 18.456C155.571 17.5787 154.442 17.14 153.005 17.14C151.53 17.14 150.354 17.6067 149.477 18.54C148.599 19.4733 148.161 20.8453 148.161 22.656V31H146.201V10.28H148.161V18.316C148.646 17.4013 149.355 16.692 150.289 16.188C151.241 15.684 152.305 15.432 153.481 15.432Z" fill="#EAEAFD"/>
<path d="M103.959 21.7772C103.959 23.3855 102.656 24.6889 101.047 24.6889C99.4391 24.6889 98.1356 23.3855 98.1356 21.7772C98.1356 20.169 99.4391 18.8655 101.047 18.8655C102.655 18.8655 103.959 20.1693 103.959 21.7772ZM113.431 35.4313C113.052 35.8105 112.555 36 112.059 36C111.562 36 111.065 35.8105 110.686 35.4313C110.686 35.4313 105.742 30.482 105.703 30.4335C104.32 31.3164 102.678 31.8301 100.915 31.8301C95.9913 31.8301 92 27.8387 92 22.9151C92 17.9913 95.9916 14 100.915 14C105.838 14 109.83 17.9913 109.83 22.915C109.83 24.6779 109.316 26.3198 108.433 27.7032C108.482 27.742 113.431 32.6865 113.431 32.6865C114.19 33.4442 114.19 34.6733 113.431 35.4313ZM107.973 22.915C107.973 19.0172 104.813 15.8573 100.915 15.8573C97.0173 15.8573 93.8574 19.0172 93.8574 22.915C93.8574 25.1645 94.9111 27.1668 96.5504 28.4593C96.7636 26.8792 98.1143 25.6598 99.7529 25.6598H102.341C103.913 25.6598 105.221 26.7805 105.514 28.2658C107.019 26.9714 107.973 25.0552 107.973 22.915Z" fill="#696D97"/>
</svg>
